<svg xmlns="http://www.w3.org/2000/svg" xmlns:xlink="http://www.w3.org/1999/xlink" version="1.1" x="0px" y="0px" viewBox="0 0 100 100" enable-background="new 0 0 100 100" xml:space="preserve"><symbol viewBox="-13.888 -12.758 27.154 25.516"><polygon fill="#000000" points="-5.663,2.949 0,12.758 5.664,2.949  "></polygon><g><path fill="#000000" d="M-11.203-12.758h-0.499c-1.202,0-2.186,0.984-2.186,2.186v6.672c0,1.202,0.984,2.186,2.186,2.186h0.499    c1.202,0,2.186-0.984,2.186-2.186v-6.672C-9.017-11.774-10.001-12.758-11.203-12.758z"></path><path fill="#000000" d="M-3.776-12.758h-0.499c-1.202,0-2.186,0.984-2.186,2.186v6.672c0,1.202,0.984,2.186,2.186,2.186h0.499    c1.202,0,2.186-0.984,2.186-2.186v-6.672C-1.59-11.774-2.573-12.758-3.776-12.758z"></path><path fill="#000000" d="M3.652-12.758H3.153c-1.202,0-2.186,0.984-2.186,2.186l0,6.672c0,1.202,0.984,2.186,2.186,2.186h0.499    c1.202,0,2.186-0.984,2.186-2.186v-6.672C5.838-11.774,4.854-12.758,3.652-12.758z"></path><path fill="#000000" d="M11.079-12.758H10.58c-1.202,0-2.186,0.984-2.186,2.186v6.672c0,1.202,0.984,2.186,2.186,2.186h0.499    c1.202,0,2.186-0.984,2.186-2.186v-6.672C13.265-11.774,12.282-12.758,11.079-12.758z"></path></g></symbol><g display="none"><rect x="-505.242" y="-529.245" display="inline" fill="#000000" width="1251.125" height="762.076"></rect></g><g><path d="M46.447,96.05H49.7h0.287h3.253c10.99,0,20.01-9.02,20.01-20.06c0-8.7-0.22-17.45,0.02-26.14   c-0.01,0.24-1.66,1.8-1.86,2.13c-0.66,1.07-0.99,2.23-1.35,3.42c-0.62,2.07-0.455,4.875-2.24,5.99   c-4.417,2.76-8.49-4.09-11.55-5.71c-1.92-1.01-4.13-1.2-6.25-1.2c-0.061,0-0.117,0.004-0.176,0.005   c-0.059-0.002-0.116-0.005-0.176-0.005c-2.12,0-4.33,0.19-6.25,1.2c-3.06,1.62-7.133,8.47-11.55,5.71   c-1.785-1.115-1.62-3.92-2.24-5.99c-0.36-1.19-0.69-2.35-1.35-3.42c-0.2-0.33-1.85-1.89-1.86-2.13c0.24,8.69,0.02,17.44,0.02,26.14   C26.437,87.03,35.457,96.05,46.447,96.05z M47.36,57.707c0,1.456,1.185,2.64,2.64,2.64s2.64-1.185,2.64-2.64h2   c0,2.559-2.082,4.64-4.64,4.64s-4.64-2.082-4.64-4.64H47.36z"></path><path d="M22.675,40.156c-2.667,0-4.837,2.171-4.837,4.837s2.171,4.837,4.837,4.837V40.156z"></path><path d="M82.162,44.993c0-2.666-2.171-4.837-4.837-4.837v9.674C79.992,49.83,82.162,47.66,82.162,44.993z"></path><path d="M53.724,50.913c1.522,1.496,3.537,2.32,5.671,2.32h3.9c2.155,0,4.202-0.818,5.761-2.301   c1.671-1.582,2.629-3.801,2.629-6.089v-3.42c0-1.969-1.597-3.57-3.56-3.57h-12.82c-1.991,0-3.287,2.082-3.786,3.878h-3.047   c-0.498-1.796-1.79-3.878-3.776-3.878h-12.82c-1.963,0-3.56,1.602-3.56,3.57v3.42c0,2.288,0.958,4.507,2.626,6.087   c1.562,1.485,3.608,2.303,5.764,2.303h3.9c2.128,0,4.139-0.824,5.658-2.316c1.575-1.537,2.442-3.591,2.442-5.784v-0.402h2.58v0.402   C51.285,47.326,52.152,49.38,53.724,50.913z M54.285,43.233c0-0.881,0.736-2.232,1.02-2.38h12.82c0.309,0,0.56,0.256,0.56,0.57   v3.42c0,1.489-0.601,2.878-1.694,3.913c-1.001,0.953-2.314,1.477-3.696,1.477h-3.9c-1.343,0-2.611-0.519-3.573-1.464   c-0.991-0.967-1.537-2.259-1.537-3.636V43.233z M45.705,45.133c0,1.377-0.546,2.669-1.541,3.64c-0.958,0.941-2.222,1.46-3.559,1.46   h-3.9c-1.382,0-2.695-0.524-3.699-1.479c-1.091-1.033-1.691-2.422-1.691-3.911v-3.42c0-0.314,0.251-0.57,0.56-0.57l12.725-0.015   c0.375,0.163,1.105,1.515,1.105,2.396V45.133z"></path><path d="M39.59,42.925c-2.526,0-4.582,2.055-4.582,4.582h1.745c0-1.564,1.272-2.837,2.837-2.837s2.837,1.272,2.837,2.837h1.745   C44.172,44.98,42.117,42.925,39.59,42.925z"></path><path d="M60.41,44.67c1.564,0,2.836,1.272,2.836,2.837h1.745c0-2.527-2.055-4.582-4.582-4.582s-4.582,2.055-4.582,4.582h1.745   C57.573,45.943,58.846,44.67,60.41,44.67z"></path><path d="M30.83,26.775c0.352-0.817,0.738-1.652,1.402-2.244c2.187-1.946,5.516-0.205,8.224,0.907   c1.985,0.815,4.195,1.249,6.29,0.784s4.038-1.951,4.647-4.009c5.768,6.604,12.322,3.712,14.681,1.104   c1.594,4.652,3.429,9.221,5.495,13.683c1.065-2.657,2.142-5.359,2.424-8.208c0.282-2.849-0.332-5.917-2.281-8.014   c2.002-6.511-1.663-14.251-7.969-16.828c0.864,1.784-0.604,3.977-2.462,4.67c-1.857,0.693-3.916,0.351-5.884,0.114   c-7.045-0.848-15.356,0.43-19.036,6.497c-1.174-2.821-5.448-3.123-7.793-1.165s-3.094,5.241-3.217,8.294   c-0.177,4.409,0.67,8.857,2.455,12.893C28.632,32.366,29.642,29.532,30.83,26.775z"></path></g></svg>