<svg width="244" height="321" viewBox="0 0 244 321" xmlns="http://www.w3.org/2000/svg" xmlns:xlink="http://www.w3.org/1999/xlink"><title>logo22</title><defs><path id="a" d="M0 533.333h733.333V0H0z"/></defs><g transform="matrix(1 0 0 -1 -242 418.333)" fill="none" fill-rule="evenodd"><mask id="b" fill="#fff"><use xlink:href="#a"/></mask><path d="M44 85.333L183.667 225l.266-.333-139.6-139.334H44zM227.733 268.4l-43.8-43.733c1.112-.846 1.978-1.712 2.6-2.6 25.512-25.29 38.267-55.844 38.267-91.667s-12.755-66.377-38.267-91.667c-25.289-25.333-55.756-38-91.4-38-35.777 0-66.333 12.667-91.666 38l-3.2 3.199L44 85.333a42.838 42.838 0 0 0-2.533 2.932c-25.334 25.29-38 55.846-38 91.668 0 35.822 12.666 66.4 38 91.734C66.755 296.955 97.31 309.6 133.133 309.6c35.6 0 66.155-12.645 91.667-37.933a39.721 39.721 0 0 1 2.933-3.267z" stroke="#F7F7F7" stroke-width="10.667" transform="translate(249.8 102.867)" mask="url(#b)"/></g></svg>