<?xml version="1.0" encoding="UTF-8" standalone="no"?>
<svg width="244px" height="321px" viewBox="0 0 244 321" version="1.1" xmlns="http://www.w3.org/2000/svg" xmlns:xlink="http://www.w3.org/1999/xlink">
    <!-- Generator: Sketch 3.7.2 (28276) - http://www.bohemiancoding.com/sketch -->
    <title>logo22</title>
    <desc>Created with Sketch.</desc>
    <defs>
        <polygon id="path-1" points="0 533.33332 733.333315 533.33332 733.333315 0 0 0"></polygon>
    </defs>
    <g id="Page-1" stroke="none" stroke-width="1" fill="none" fill-rule="evenodd">
        <g id="logo22" transform="translate(-242.000000, -116.000000)">
            <g id="svg2">
                <g id="g10" transform="translate(367.000000, 267.333330) scale(1, -1) translate(-367.000000, -267.333330) translate(0.000000, 0.333330)">
                    <g id="g12">
                        <g id="g14-Clipped">
                            <mask id="mask-2" fill="white">
                                <use xlink:href="#path-1"></use>
                            </mask>
                            <g id="path16"></g>
                            <g id="g14" mask="url(#mask-2)">
                                <g transform="translate(249.333327, 102.666664)" id="g20">
                                    <g transform="translate(0.466800, 0.200533)">
                                        <path d="M43.9999989,85.3333312 L183.666662,224.999994 L183.933329,224.666661 L44.3333322,85.3333312 L43.9999989,85.3333312 Z M227.733328,268.399993 L183.933329,224.666661 C185.045329,223.821328 185.910662,222.954661 186.533329,222.066661 C212.045328,196.777328 224.799994,166.222663 224.799994,130.399997 C224.799994,94.577331 212.045328,64.0226651 186.533329,38.7333324 C161.243996,13.3999997 130.77733,0.733333315 95.133331,0.733333315 C59.3559985,0.733333315 28.7999993,13.3999997 3.46666658,38.7333324 C2.39999994,39.799999 1.3333333,40.8653323 0.26666666,41.931999 L43.9999989,85.3333312 C43.1559989,86.2213312 42.3106656,87.1986645 41.4666656,88.2653311 C16.1333329,113.554664 3.46666658,144.110663 3.46666658,179.933329 C3.46666658,215.754661 16.1333329,246.333327 41.4666656,271.66666 C66.754665,296.954659 97.3106642,309.599992 133.13333,309.599992 C168.733329,309.599992 199.287995,296.954659 224.799994,271.66666 C225.687994,270.555993 226.666661,269.46666 227.733328,268.399993 L227.733328,268.399993 Z" id="path22" stroke="#F7F7F7" stroke-width="10.6666664"></path>
                                    </g>
                                </g>
                            </g>
                        </g>
                    </g>
                </g>
            </g>
        </g>
    </g>
</svg>